<svg version="1" xmlns="http://www.w3.org/2000/svg" width="300" height="300" viewBox="0 0 300.000000 300.000000"><path d="M89.8 43.9c-6.2.9-12.4 5.3-16.3 11.6l-3 4.8-.3 75.1c-.2 41.3-.1 79.3.3 84.4.6 8.1 1.1 9.8 3.8 14 1.8 2.6 5.4 6 8.1 7.7l4.9 3h53.1c59.2 0 57.8.1 71.8-7.2 19.8-10.3 30.4-34.8 25.4-58.4-3.2-15.1-13.9-29.6-26.3-35.5l-6.1-3 6.2-3.2c22-11.4 30-41.1 17.9-66.2-3.8-7.9-13.2-16.9-22.3-21.3-12.7-6.3-17.3-6.7-67.8-6.6-24.6.1-46.8.5-49.4.8zm88.6 40c12.5 6.1 15 24.1 4.7 33.4-2.2 2-5.7 4-7.8 4.6-2.3.7-15.4 1.1-32.5 1.1H114v-20.3c0-11.2.3-20.7.8-21.1.4-.5 13.8-.6 29.7-.4 28 .3 29.2.4 33.9 2.7zm-.2 79.2c9.3 3 14.8 11 14.8 21.1 0 10.8-5.2 18.1-14.9 20.8-2 .6-16.7 1-33.8 1H114v-21.8c0-12 .3-22.2.8-22.7 1.2-1.2 59.2.2 63.4 1.6z"/></svg>
