<svg version="1" xmlns="http://www.w3.org/2000/svg" width="300" height="300" viewBox="0 0 300.000000 300.000000"><path d="M136.5 62.6c-35.6 7.9-62.8 35.7-70 71.3-2.3 11.2-1.6 30.4 1.4 40.9 9.2 31.8 37.4 57.4 69.4 63.3 29.6 5.3 62.4-7 82.3-31 5.5-6.6 6.3-9.4 3.7-12.9-2.4-3.3-23.5-14.2-27.4-14.2-2.2 0-4.5 1.6-9.8 6.9-15.5 15.5-34.4 19-52.9 9.9-11.8-5.8-22.3-18.9-25.8-32.2-1.8-6.8-1.8-20.8.1-28.1 3.7-14.1 12.8-25.4 25.2-31.3 6.2-2.9 8.8-3.5 16.1-4 14.3-.8 25.6 3.5 38.6 14.8 3.8 3.3 7.3 6 7.8 6 1.9 0 25.2-12.3 27.4-14.5 4.7-4.7 2.6-9.5-9.1-21.1-11.5-11.3-21-17.2-35.2-22-10-3.4-30.7-4.3-41.8-1.8z"/></svg>